<svg width="116" height="21" viewBox="0 0 116 21" fill="none" xmlns="http://www.w3.org/2000/svg">
<path d="M10.3434 14.9783L14.2809 17.4783C14.7887 17.7986 15.4137 17.322 15.2653 16.7361L14.1246 12.2517C14.0938 12.1274 14.0987 11.9969 14.1388 11.8753C14.1789 11.7537 14.2525 11.6458 14.3512 11.5642L17.8824 8.61892C18.3434 8.2361 18.109 7.46267 17.5074 7.4236L12.8981 7.12673C12.7723 7.11941 12.6514 7.07562 12.5501 7.00069C12.4488 6.92577 12.3716 6.82297 12.3278 6.70485L10.609 2.37673C10.5635 2.25165 10.4806 2.14361 10.3716 2.06726C10.2626 1.99091 10.1327 1.94995 9.99963 1.94995C9.86654 1.94995 9.73667 1.99091 9.62765 2.06726C9.51863 2.14361 9.43575 2.25165 9.39026 2.37673L7.67151 6.70485C7.6277 6.82297 7.55044 6.92577 7.44916 7.00069C7.34787 7.07562 7.22696 7.11941 7.10119 7.12673L2.49182 7.4236C1.89026 7.46267 1.65588 8.2361 2.11682 8.61892L5.64807 11.5642C5.74677 11.6458 5.8204 11.7537 5.86049 11.8753C5.90057 11.9969 5.90547 12.1274 5.87463 12.2517L4.81994 16.408C4.64026 17.1111 5.39026 17.6814 5.99182 17.2986L9.65588 14.9783C9.75863 14.913 9.87787 14.8783 9.99963 14.8783C10.1214 14.8783 10.2406 14.913 10.3434 14.9783V14.9783Z" fill="#FF9F0D"/>
<path d="M34.3434 14.9783L38.2809 17.4783C38.7887 17.7986 39.4137 17.322 39.2653 16.7361L38.1246 12.2517C38.0938 12.1274 38.0987 11.9969 38.1388 11.8753C38.1789 11.7537 38.2525 11.6458 38.3512 11.5642L41.8824 8.61892C42.3434 8.2361 42.109 7.46267 41.5074 7.4236L36.8981 7.12673C36.7723 7.11941 36.6514 7.07562 36.5501 7.00069C36.4488 6.92577 36.3716 6.82297 36.3278 6.70485L34.609 2.37673C34.5635 2.25165 34.4806 2.14361 34.3716 2.06726C34.2626 1.99091 34.1327 1.94995 33.9996 1.94995C33.8665 1.94995 33.7367 1.99091 33.6277 2.06726C33.5186 2.14361 33.4358 2.25165 33.3903 2.37673L31.6715 6.70485C31.6277 6.82297 31.5504 6.92577 31.4492 7.00069C31.3479 7.07562 31.227 7.11941 31.1012 7.12673L26.4918 7.4236C25.8903 7.46267 25.6559 8.2361 26.1168 8.61892L29.6481 11.5642C29.7468 11.6458 29.8204 11.7537 29.8605 11.8753C29.9006 11.9969 29.9055 12.1274 29.8746 12.2517L28.8199 16.408C28.6403 17.1111 29.3903 17.6814 29.9918 17.2986L33.6559 14.9783C33.7586 14.913 33.8779 14.8783 33.9996 14.8783C34.1214 14.8783 34.2406 14.913 34.3434 14.9783V14.9783Z" fill="#FF9F0D"/>
<path d="M58.3434 14.9783L62.2809 17.4783C62.7887 17.7986 63.4137 17.322 63.2653 16.7361L62.1246 12.2517C62.0938 12.1274 62.0987 11.9969 62.1388 11.8753C62.1789 11.7537 62.2525 11.6458 62.3512 11.5642L65.8824 8.61892C66.3434 8.2361 66.109 7.46267 65.5074 7.4236L60.8981 7.12673C60.7723 7.11941 60.6514 7.07562 60.5501 7.00069C60.4488 6.92577 60.3716 6.82297 60.3278 6.70485L58.609 2.37673C58.5635 2.25165 58.4806 2.14361 58.3716 2.06726C58.2626 1.99091 58.1327 1.94995 57.9996 1.94995C57.8665 1.94995 57.7367 1.99091 57.6277 2.06726C57.5186 2.14361 57.4358 2.25165 57.3903 2.37673L55.6715 6.70485C55.6277 6.82297 55.5504 6.92577 55.4492 7.00069C55.3479 7.07562 55.227 7.11941 55.1012 7.12673L50.4918 7.4236C49.8903 7.46267 49.6559 8.2361 50.1168 8.61892L53.6481 11.5642C53.7468 11.6458 53.8204 11.7537 53.8605 11.8753C53.9006 11.9969 53.9055 12.1274 53.8746 12.2517L52.8199 16.408C52.6403 17.1111 53.3903 17.6814 53.9918 17.2986L57.6559 14.9783C57.7586 14.913 57.8779 14.8783 57.9996 14.8783C58.1214 14.8783 58.2406 14.913 58.3434 14.9783V14.9783Z" fill="#FF9F0D"/>
<path d="M82.3434 14.9783L86.2809 17.4783C86.7887 17.7986 87.4137 17.322 87.2653 16.7361L86.1246 12.2517C86.0938 12.1274 86.0987 11.9969 86.1388 11.8753C86.1789 11.7537 86.2525 11.6458 86.3512 11.5642L89.8824 8.61892C90.3434 8.2361 90.109 7.46267 89.5074 7.4236L84.8981 7.12673C84.7723 7.11941 84.6514 7.07562 84.5501 7.00069C84.4488 6.92577 84.3716 6.82297 84.3278 6.70485L82.609 2.37673C82.5635 2.25165 82.4806 2.14361 82.3716 2.06726C82.2626 1.99091 82.1327 1.94995 81.9996 1.94995C81.8665 1.94995 81.7367 1.99091 81.6277 2.06726C81.5186 2.14361 81.4358 2.25165 81.3903 2.37673L79.6715 6.70485C79.6277 6.82297 79.5504 6.92577 79.4492 7.00069C79.3479 7.07562 79.227 7.11941 79.1012 7.12673L74.4918 7.4236C73.8903 7.46267 73.6559 8.2361 74.1168 8.61892L77.6481 11.5642C77.7468 11.6458 77.8204 11.7537 77.8605 11.8753C77.9006 11.9969 77.9055 12.1274 77.8746 12.2517L76.8199 16.408C76.6403 17.1111 77.3903 17.6814 77.9918 17.2986L81.6559 14.9783C81.7586 14.913 81.8779 14.8783 81.9996 14.8783C82.1214 14.8783 82.2406 14.913 82.3434 14.9783V14.9783Z" fill="#E0E0E0"/>
<path d="M106.343 14.9783L110.281 17.4783C110.789 17.7986 111.414 17.322 111.265 16.7361L110.125 12.2517C110.094 12.1274 110.099 11.9969 110.139 11.8753C110.179 11.7537 110.252 11.6458 110.351 11.5642L113.882 8.61892C114.343 8.2361 114.109 7.46267 113.507 7.4236L108.898 7.12673C108.772 7.11941 108.651 7.07562 108.55 7.00069C108.449 6.92577 108.372 6.82297 108.328 6.70485L106.609 2.37673C106.564 2.25165 106.481 2.14361 106.372 2.06726C106.263 1.99091 106.133 1.94995 106 1.94995C105.867 1.94995 105.737 1.99091 105.628 2.06726C105.519 2.14361 105.436 2.25165 105.39 2.37673L103.672 6.70485C103.628 6.82297 103.55 6.92577 103.449 7.00069C103.348 7.07562 103.227 7.11941 103.101 7.12673L98.4918 7.4236C97.8903 7.46267 97.6559 8.2361 98.1168 8.61892L101.648 11.5642C101.747 11.6458 101.82 11.7537 101.86 11.8753C101.901 11.9969 101.905 12.1274 101.875 12.2517L100.82 16.408C100.64 17.1111 101.39 17.6814 101.992 17.2986L105.656 14.9783C105.759 14.913 105.878 14.8783 106 14.8783C106.121 14.8783 106.241 14.913 106.343 14.9783V14.9783Z" fill="#E0E0E0"/>
</svg>
