<svg width="19" height="19" viewBox="0 0 19 19" fill="none" xmlns="http://www.w3.org/2000/svg">
<path d="M14.7484 15.5444C15.8342 15.5444 16.7145 14.6874 16.7145 13.6302C16.7145 12.5731 15.8342 11.7161 14.7484 11.7161C13.6625 11.7161 12.7822 12.5731 12.7822 13.6302C12.7822 14.6874 13.6625 15.5444 14.7484 15.5444Z" stroke="#FF9F0D" stroke-width="1.5" stroke-linecap="round" stroke-linejoin="round"/>
<path d="M14.7488 11.7162L14.7486 8.97356C14.7486 8.10332 14.3935 7.26873 13.7614 6.65338L11.0972 4.05957" stroke="#FF9F0D" stroke-width="1.5" stroke-linecap="round" stroke-linejoin="round"/>
<path d="M11.0972 6.79408V4.05957H13.9059" stroke="#FF9F0D" stroke-width="1.5" stroke-linecap="round" stroke-linejoin="round"/>
<path d="M5.19857 7.34101C6.28444 7.34101 7.16471 6.48401 7.16471 5.42685C7.16471 4.36969 6.28444 3.5127 5.19857 3.5127C4.1127 3.5127 3.23242 4.36969 3.23242 5.42685C3.23242 6.48401 4.1127 7.34101 5.19857 7.34101Z" stroke="#FF9F0D" stroke-width="1.5" stroke-linecap="round" stroke-linejoin="round"/>
<path d="M5.19873 7.34082L5.19884 10.0835C5.19888 10.9537 5.55399 11.7883 6.18605 12.4036L8.85032 14.9974" stroke="#FF9F0D" stroke-width="1.5" stroke-linecap="round" stroke-linejoin="round"/>
<path d="M8.8498 12.2629V14.9974H6.04102" stroke="#FF9F0D" stroke-width="1.5" stroke-linecap="round" stroke-linejoin="round"/>
</svg>
