<svg width="24" height="24" viewBox="0 0 24 24" fill="none" xmlns="http://www.w3.org/2000/svg">
<path d="M21.3889 11.3602L7.8911 3.11126C7.77741 3.04179 7.64726 3.00385 7.51404 3.00135C7.38083 2.99886 7.24935 3.0319 7.13314 3.09707C7.01692 3.16225 6.92017 3.2572 6.85283 3.37217C6.7855 3.48714 6.75 3.61798 6.75 3.75122V20.2491C6.75 20.3823 6.7855 20.5132 6.85283 20.6281C6.92017 20.7431 7.01692 20.8381 7.13314 20.9032C7.24935 20.9684 7.38083 21.0015 7.51404 20.999C7.64726 20.9965 7.77741 20.9585 7.8911 20.889L21.3889 12.6401C21.4985 12.5731 21.5891 12.4791 21.652 12.367C21.7148 12.255 21.7478 12.1286 21.7478 12.0002C21.7478 11.8717 21.7148 11.7454 21.652 11.6333C21.5891 11.5212 21.4985 11.4272 21.3889 11.3602Z" stroke="white" stroke-width="1.875" stroke-linecap="round" stroke-linejoin="round"/>
</svg>
