<svg width="153" height="25" viewBox="0 0 153 25" fill="none" xmlns="http://www.w3.org/2000/svg">
<path d="M23.9948 9.43819L16.6181 8.31177L13.3128 1.26116C13.2409 1.14048 13.141 1.04099 13.0224 0.972027C12.9039 0.903062 12.7707 0.866882 12.6353 0.866882C12.4998 0.866882 12.3666 0.903062 12.2481 0.972027C12.1296 1.04099 12.0296 1.14048 11.9577 1.26116L8.65239 8.32139L1.27874 9.43819C1.14516 9.45198 1.0181 9.50557 0.912488 9.59267C0.806877 9.67977 0.727108 9.79676 0.682554 9.9299C0.638 10.063 0.630513 10.2068 0.660974 10.3442C0.691435 10.4817 0.758577 10.6071 0.85451 10.7058L6.21078 16.2096L4.9442 23.9823C4.92799 24.1255 4.94974 24.2708 5.00706 24.4018C5.06438 24.5329 5.15503 24.6448 5.26901 24.7252C5.383 24.8055 5.51587 24.8512 5.65298 24.8571C5.79008 24.8631 5.92608 24.8291 6.04597 24.7589L12.6353 21.1132L19.2215 24.7621C19.3414 24.8323 19.4774 24.8663 19.6145 24.8604C19.7516 24.8544 19.8845 24.8087 19.9984 24.7284C20.1124 24.6481 20.2031 24.5362 20.2604 24.4051C20.3177 24.274 20.3395 24.1288 20.3233 23.9855L19.0597 16.2096L24.416 10.7058C24.5119 10.6071 24.5791 10.4817 24.6095 10.3442C24.64 10.2068 24.6325 10.063 24.588 9.9299C24.5434 9.79676 24.4636 9.67977 24.358 9.59267C24.2524 9.50557 24.1253 9.45198 23.9918 9.43819H23.9948Z" fill="#FF9F0D"/>
<path d="M55.9753 9.43818L48.5986 8.31175L45.2933 1.26115C45.2213 1.14047 45.1214 1.04098 45.0029 0.972012C44.8844 0.903047 44.7512 0.866867 44.6157 0.866867C44.4803 0.866867 44.347 0.903047 44.2285 0.972012C44.11 1.04098 44.0101 1.14047 43.9382 1.26115L40.6329 8.32138L33.2592 9.43818C33.1256 9.45196 32.9986 9.50555 32.893 9.59266C32.7873 9.67976 32.7076 9.79675 32.663 9.92988C32.6185 10.063 32.611 10.2067 32.6414 10.3442C32.6719 10.4817 32.739 10.6071 32.835 10.7058L38.1912 16.2096L36.9247 23.9823C36.9085 24.1255 36.9302 24.2707 36.9875 24.4018C37.0448 24.5329 37.1355 24.6448 37.2495 24.7252C37.3635 24.8055 37.4963 24.8512 37.6334 24.8571C37.7706 24.8631 37.9066 24.8291 38.0264 24.7589L44.6157 21.1132L51.202 24.7621C51.3218 24.8323 51.4578 24.8663 51.5949 24.8603C51.7321 24.8544 51.8649 24.8087 51.9789 24.7284C52.0929 24.648 52.1835 24.5361 52.2409 24.405C52.2982 24.2739 52.3199 24.1287 52.3037 23.9855L51.0402 16.2096L56.3965 10.7058C56.4924 10.6071 56.5595 10.4817 56.59 10.3442C56.6205 10.2067 56.613 10.063 56.5684 9.92988C56.5239 9.79675 56.4441 9.67976 56.3385 9.59266C56.2329 9.50555 56.1058 9.45196 55.9722 9.43818H55.9753Z" fill="#FF9F0D"/>
<path d="M87.9558 9.43818L80.5791 8.31175L77.2737 1.26115C77.2018 1.14047 77.1019 1.04098 76.9834 0.972012C76.8649 0.903047 76.7316 0.866867 76.5962 0.866867C76.4607 0.866867 76.3275 0.903047 76.209 0.972012C76.0905 1.04098 75.9906 1.14047 75.9186 1.26115L72.6133 8.32138L65.2397 9.43818C65.1061 9.45196 64.979 9.50555 64.8734 9.59266C64.7678 9.67976 64.688 9.79675 64.6435 9.92988C64.5989 10.063 64.5915 10.2067 64.6219 10.3442C64.6524 10.4817 64.7195 10.6071 64.8154 10.7058L70.1717 16.2096L68.9051 23.9823C68.8889 24.1255 68.9107 24.2707 68.968 24.4018C69.0253 24.5329 69.116 24.6448 69.23 24.7252C69.3439 24.8055 69.4768 24.8512 69.6139 24.8571C69.751 24.8631 69.887 24.8291 70.0069 24.7589L76.5962 21.1132L83.1824 24.7621C83.3023 24.8323 83.4383 24.8663 83.5754 24.8603C83.7125 24.8544 83.8454 24.8087 83.9594 24.7284C84.0734 24.648 84.164 24.5361 84.2213 24.405C84.2787 24.2739 84.3004 24.1287 84.2842 23.9855L83.0207 16.2096L88.3769 10.7058C88.4729 10.6071 88.54 10.4817 88.5705 10.3442C88.6009 10.2067 88.5934 10.063 88.5489 9.92988C88.5043 9.79675 88.4246 9.67976 88.319 9.59266C88.2133 9.50555 88.0863 9.45196 87.9527 9.43818H87.9558Z" fill="#FF9F0D"/>
<path d="M119.936 9.43818L112.56 8.31175L109.254 1.26115C109.182 1.14047 109.082 1.04098 108.964 0.972012C108.845 0.903047 108.712 0.866867 108.577 0.866867C108.441 0.866867 108.308 0.903047 108.189 0.972012C108.071 1.04098 107.971 1.14047 107.899 1.26115L104.594 8.32138L97.2201 9.43818C97.0866 9.45196 96.9595 9.50555 96.8539 9.59266C96.7483 9.67976 96.6685 9.79675 96.624 9.92988C96.5794 10.063 96.5719 10.2067 96.6024 10.3442C96.6328 10.4817 96.7 10.6071 96.7959 10.7058L102.152 16.2096L100.886 23.9823C100.869 24.1255 100.891 24.2707 100.948 24.4018C101.006 24.5329 101.096 24.6448 101.21 24.7252C101.324 24.8055 101.457 24.8512 101.594 24.8571C101.732 24.8631 101.868 24.8291 101.987 24.7589L108.577 21.1132L115.163 24.7621C115.283 24.8323 115.419 24.8663 115.556 24.8603C115.693 24.8544 115.826 24.8087 115.94 24.7284C116.054 24.648 116.145 24.5361 116.202 24.405C116.259 24.2739 116.281 24.1287 116.265 23.9855L115.001 16.2096L120.357 10.7058C120.453 10.6071 120.521 10.4817 120.551 10.3442C120.581 10.2067 120.574 10.063 120.529 9.92988C120.485 9.79675 120.405 9.67976 120.299 9.59266C120.194 9.50555 120.067 9.45196 119.933 9.43818H119.936Z" fill="#FF9F0D"/>
<path d="M151.917 9.43818L144.54 8.31175L141.235 1.26115C141.163 1.14047 141.063 1.04098 140.944 0.972012C140.826 0.903047 140.693 0.866867 140.557 0.866867C140.422 0.866867 140.288 0.903047 140.17 0.972012C140.051 1.04098 139.951 1.14047 139.88 1.26115L136.574 8.32138L129.201 9.43818C129.067 9.45196 128.94 9.50555 128.834 9.59266C128.729 9.67976 128.649 9.79675 128.604 9.92988C128.56 10.063 128.552 10.2067 128.583 10.3442C128.613 10.4817 128.68 10.6071 128.776 10.7058L134.133 16.2096L132.866 23.9823C132.85 24.1255 132.872 24.2707 132.929 24.4018C132.986 24.5329 133.077 24.6448 133.191 24.7252C133.305 24.8055 133.438 24.8512 133.575 24.8571C133.712 24.8631 133.848 24.8291 133.968 24.7589L140.557 21.1132L147.143 24.7621C147.263 24.8323 147.399 24.8663 147.536 24.8603C147.673 24.8544 147.806 24.8087 147.92 24.7284C148.034 24.648 148.125 24.5361 148.182 24.405C148.24 24.2739 148.261 24.1287 148.245 23.9855L146.982 16.2096L152.338 10.7058C152.434 10.6071 152.501 10.4817 152.531 10.3442C152.562 10.2067 152.554 10.063 152.51 9.92988C152.465 9.79675 152.385 9.67976 152.28 9.59266C152.174 9.50555 152.047 9.45196 151.914 9.43818H151.917Z" fill="#E0E0E0"/>
</svg>
