<svg width="116" height="20" viewBox="0 0 116 20" fill="none" xmlns="http://www.w3.org/2000/svg">
<path d="M10.3439 14.8985L14.2814 17.3985C14.7892 17.7188 15.4142 17.2422 15.2657 16.6563L14.1251 12.1719C14.0943 12.0476 14.0992 11.9171 14.1393 11.7955C14.1793 11.6738 14.253 11.566 14.3517 11.4844L17.8829 8.53908C18.3439 8.15627 18.1095 7.38283 17.5079 7.34377L12.8986 7.04689C12.7728 7.03958 12.6519 6.99578 12.5506 6.92086C12.4493 6.84594 12.372 6.74314 12.3282 6.62502L10.6095 2.29689C10.564 2.17182 10.4811 2.06377 10.3721 1.98742C10.2631 1.91107 10.1332 1.87012 10.0001 1.87012C9.86703 1.87012 9.73716 1.91107 9.62814 1.98742C9.51912 2.06377 9.43624 2.17182 9.39074 2.29689L7.67199 6.62502C7.62819 6.74314 7.55093 6.84594 7.44964 6.92086C7.34836 6.99578 7.22745 7.03958 7.10168 7.04689L2.49231 7.34377C1.89074 7.38283 1.65637 8.15627 2.11731 8.53908L5.64856 11.4844C5.74726 11.566 5.82089 11.6738 5.86097 11.7955C5.90106 11.9171 5.90596 12.0476 5.87512 12.1719L4.82043 16.3281C4.64074 17.0313 5.39074 17.6016 5.99231 17.2188L9.65637 14.8985C9.75912 14.8331 9.87836 14.7984 10.0001 14.7984C10.1219 14.7984 10.2411 14.8331 10.3439 14.8985Z" fill="#FF9F0D"/>
<path d="M34.3439 14.8985L38.2814 17.3985C38.7892 17.7188 39.4142 17.2422 39.2657 16.6563L38.1251 12.1719C38.0943 12.0476 38.0992 11.9171 38.1393 11.7955C38.1793 11.6738 38.253 11.566 38.3517 11.4844L41.8829 8.53908C42.3439 8.15627 42.1095 7.38283 41.5079 7.34377L36.8986 7.04689C36.7728 7.03958 36.6519 6.99578 36.5506 6.92086C36.4493 6.84594 36.372 6.74314 36.3282 6.62502L34.6095 2.29689C34.564 2.17182 34.4811 2.06377 34.3721 1.98742C34.2631 1.91107 34.1332 1.87012 34.0001 1.87012C33.867 1.87012 33.7372 1.91107 33.6281 1.98742C33.5191 2.06377 33.4362 2.17182 33.3907 2.29689L31.672 6.62502C31.6282 6.74314 31.5509 6.84594 31.4496 6.92086C31.3484 6.99578 31.2274 7.03958 31.1017 7.04689L26.4923 7.34377C25.8907 7.38283 25.6564 8.15627 26.1173 8.53908L29.6486 11.4844C29.7473 11.566 29.8209 11.6738 29.861 11.7955C29.9011 11.9171 29.906 12.0476 29.8751 12.1719L28.8204 16.3281C28.6407 17.0313 29.3907 17.6016 29.9923 17.2188L33.6564 14.8985C33.7591 14.8331 33.8784 14.7984 34.0001 14.7984C34.1219 14.7984 34.2411 14.8331 34.3439 14.8985Z" fill="#FF9F0D"/>
<path d="M58.3434 14.8985L62.2809 17.3985C62.7887 17.7188 63.4137 17.2422 63.2653 16.6563L62.1246 12.1719C62.0938 12.0476 62.0987 11.9171 62.1388 11.7955C62.1789 11.6738 62.2525 11.566 62.3512 11.4844L65.8824 8.53908C66.3434 8.15627 66.109 7.38283 65.5074 7.34377L60.8981 7.04689C60.7723 7.03958 60.6514 6.99578 60.5501 6.92086C60.4488 6.84594 60.3716 6.74314 60.3278 6.62502L58.609 2.29689C58.5635 2.17182 58.4806 2.06377 58.3716 1.98742C58.2626 1.91107 58.1327 1.87012 57.9996 1.87012C57.8665 1.87012 57.7367 1.91107 57.6277 1.98742C57.5186 2.06377 57.4358 2.17182 57.3903 2.29689L55.6715 6.62502C55.6277 6.74314 55.5504 6.84594 55.4492 6.92086C55.3479 6.99578 55.227 7.03958 55.1012 7.04689L50.4918 7.34377C49.8903 7.38283 49.6559 8.15627 50.1168 8.53908L53.6481 11.4844C53.7468 11.566 53.8204 11.6738 53.8605 11.7955C53.9006 11.9171 53.9055 12.0476 53.8746 12.1719L52.8199 16.3281C52.6403 17.0313 53.3903 17.6016 53.9918 17.2188L57.6559 14.8985C57.7586 14.8331 57.8779 14.7984 57.9996 14.7984C58.1214 14.7984 58.2406 14.8331 58.3434 14.8985Z" fill="#FF9F0D"/>
<path d="M82.3434 14.8985L86.2809 17.3985C86.7887 17.7188 87.4137 17.2422 87.2653 16.6563L86.1246 12.1719C86.0938 12.0476 86.0987 11.9171 86.1388 11.7955C86.1789 11.6738 86.2525 11.566 86.3512 11.4844L89.8824 8.53908C90.3434 8.15627 90.109 7.38283 89.5074 7.34377L84.8981 7.04689C84.7723 7.03958 84.6514 6.99578 84.5501 6.92086C84.4488 6.84594 84.3716 6.74314 84.3278 6.62502L82.609 2.29689C82.5635 2.17182 82.4806 2.06377 82.3716 1.98742C82.2626 1.91107 82.1327 1.87012 81.9996 1.87012C81.8665 1.87012 81.7367 1.91107 81.6277 1.98742C81.5186 2.06377 81.4358 2.17182 81.3903 2.29689L79.6715 6.62502C79.6277 6.74314 79.5504 6.84594 79.4492 6.92086C79.3479 6.99578 79.227 7.03958 79.1012 7.04689L74.4918 7.34377C73.8903 7.38283 73.6559 8.15627 74.1168 8.53908L77.6481 11.4844C77.7468 11.566 77.8204 11.6738 77.8605 11.7955C77.9006 11.9171 77.9055 12.0476 77.8746 12.1719L76.8199 16.3281C76.6403 17.0313 77.3903 17.6016 77.9918 17.2188L81.6559 14.8985C81.7586 14.8331 81.8779 14.7984 81.9996 14.7984C82.1214 14.7984 82.2406 14.8331 82.3434 14.8985Z" fill="#FF9F0D"/>
<path d="M106.343 14.8985L110.281 17.3985C110.789 17.7188 111.414 17.2422 111.265 16.6563L110.125 12.1719C110.094 12.0476 110.099 11.9171 110.139 11.7955C110.179 11.6738 110.252 11.566 110.351 11.4844L113.882 8.53908C114.343 8.15627 114.109 7.38283 113.507 7.34377L108.898 7.04689C108.772 7.03958 108.651 6.99578 108.55 6.92086C108.449 6.84594 108.372 6.74314 108.328 6.62502L106.609 2.29689C106.564 2.17182 106.481 2.06377 106.372 1.98742C106.263 1.91107 106.133 1.87012 106 1.87012C105.867 1.87012 105.737 1.91107 105.628 1.98742C105.519 2.06377 105.436 2.17182 105.39 2.29689L103.672 6.62502C103.628 6.74314 103.55 6.84594 103.449 6.92086C103.348 6.99578 103.227 7.03958 103.101 7.04689L98.4918 7.34377C97.8903 7.38283 97.6559 8.15627 98.1168 8.53908L101.648 11.4844C101.747 11.566 101.82 11.6738 101.86 11.7955C101.901 11.9171 101.905 12.0476 101.875 12.1719L100.82 16.3281C100.64 17.0313 101.39 17.6016 101.992 17.2188L105.656 14.8985C105.759 14.8331 105.878 14.7984 106 14.7984C106.121 14.7984 106.241 14.8331 106.343 14.8985Z" fill="#FF9F0D"/>
</svg>
